<?xml version="1.0" encoding="utf-8"?>
<!-- Generator: Adobe Illustrator 23.0.6, SVG Export Plug-In . SVG Version: 6.00 Build 0)  -->
<svg version="1.1" id="Ebene_1" xmlns="http://www.w3.org/2000/svg" xmlns:xlink="http://www.w3.org/1999/xlink" x="0px" y="0px"
	 viewBox="0 0 233.66 265.53" style="enable-background:new 0 0 233.66 265.53;" xml:space="preserve">
<style type="text/css">
	.st0{fill:#3D4C53;}
	.st1{fill:url(#SVGID_1_);}
	.st2{fill:url(#SVGID_2_);}
</style>
<g>
	<g>
		<g>
			<path class="st0" d="M44.81,220.59v44.18H34.59v-18.12H14.52v18.12H4.29v-44.18h10.22v17.42h20.07v-17.42H44.81z"/>
			<path class="st0" d="M79.66,249.12v15.65H69.43V249l-17.11-28.4h10.86l11.8,19.63l11.8-19.63h10.04L79.66,249.12z"/>
			<path class="st0" d="M112.6,228.92H98.47v-8.33h38.5v8.33h-14.14v35.85H112.6V228.92z"/>
			<path class="st0" d="M179.83,256.57v8.21h-34.21v-44.18h33.39v8.21h-23.23v9.59h20.51v7.95h-20.51v10.23H179.83z"/>
			<path class="st0" d="M220.85,241.99h9.34v17.93c-2.4,1.81-5.18,3.2-8.33,4.17c-3.16,0.97-6.33,1.45-9.53,1.45
				c-4.59,0-8.71-0.98-12.37-2.94c-3.66-1.96-6.53-4.67-8.62-8.14c-2.08-3.47-3.12-7.39-3.12-11.77c0-4.38,1.04-8.3,3.12-11.77
				s4.98-6.19,8.68-8.14c3.7-1.96,7.87-2.93,12.5-2.93c3.87,0,7.38,0.65,10.54,1.96c3.16,1.3,5.81,3.2,7.95,5.68l-6.56,6.06
				c-3.16-3.32-6.96-4.99-11.42-4.99c-2.82,0-5.32,0.59-7.51,1.77c-2.19,1.18-3.89,2.84-5.11,4.99c-1.22,2.15-1.83,4.61-1.83,7.38
				c0,2.74,0.61,5.18,1.83,7.32c1.22,2.15,2.91,3.82,5.08,5.02c2.17,1.2,4.64,1.8,7.42,1.8c2.95,0,5.6-0.63,7.95-1.89V241.99z"/>
		</g>
	</g>
	<linearGradient id="SVGID_1_" gradientUnits="userSpaceOnUse" x1="0" y1="100.4332" x2="233.6602" y2="100.4332">
		<stop  offset="0" style="stop-color:#77A1D3"/>
		<stop  offset="0.2698" style="stop-color:#78B3CF"/>
		<stop  offset="0.5496" style="stop-color:#79CBCA"/>
		<stop  offset="0.8851" style="stop-color:#C9DEC1"/>
		<stop  offset="0.9998" style="stop-color:#E5E5BE"/>
	</linearGradient>
	<path class="st1" d="M114.78,0L0,200.87h233.66L114.78,0z M115.76,81.19l46.05,78.35H70.99L115.76,81.19z M124.94,65.12l4.77-8.35
		l75.78,128.03h-10.2L124.94,65.12z M115.02,31.95l5.28,8.92L52.49,159.54H42.11L115.02,31.95z M32.94,175.6h138.32l5.41,9.2H27.68
		L32.94,175.6z"/>
</g>
</svg>
