<?xml version="1.0" encoding="utf-8"?>
<!-- Generator: Adobe Illustrator 23.0.6, SVG Export Plug-In . SVG Version: 6.00 Build 0)  -->
<svg version="1.1" id="Ebene_1" xmlns="http://www.w3.org/2000/svg" xmlns:xlink="http://www.w3.org/1999/xlink" x="0px" y="0px"
	 viewBox="0 0 695.42 173.65" style="enable-background:new 0 0 695.42 173.65;" xml:space="preserve">
<style type="text/css">
	.st0{fill:#3D4C53;}
	.st1{fill:url(#SVGID_1_);}
	.st2{fill:url(#SVGID_2_);}
</style>
<g>
	<g>
		<path class="st0" d="M7.7,153.98h0.92v7.22h10.41v-7.22h0.92v15.38h-0.92v-7.26H8.62v7.26H7.7V153.98z"/>
		<path class="st0" d="M45.27,172.97c-0.54,0.45-1.15,0.68-1.83,0.68c-0.87,0-1.59-0.22-2.18-0.66l0.4-0.79
			c0.51,0.35,1.09,0.53,1.74,0.53c0.51,0,0.98-0.18,1.41-0.53c0.43-0.35,0.78-0.87,1.06-1.54l0.53-1.3l-4.73-11.46h0.97l4.22,10.38
			l4.11-10.38h0.97l-5.32,13.11C46.26,171.86,45.82,172.52,45.27,172.97z"/>
		<path class="st0" d="M81.87,158.62c0.84,0.49,1.5,1.17,1.97,2.05c0.47,0.87,0.7,1.87,0.7,2.98c0,1.1-0.23,2.09-0.7,2.96
			c-0.47,0.87-1.12,1.55-1.96,2.05s-1.79,0.74-2.86,0.74c-1.11,0-2.09-0.27-2.94-0.8c-0.84-0.54-1.49-1.27-1.92-2.21v2.99h-0.92
			v-16.32h0.92v7.88c0.44-0.95,1.08-1.7,1.92-2.23c0.84-0.54,1.82-0.8,2.94-0.8C80.08,157.88,81.03,158.12,81.87,158.62z
			 M81.34,167.9c0.73-0.42,1.29-1,1.69-1.74c0.4-0.74,0.6-1.58,0.6-2.52s-0.2-1.78-0.6-2.52c-0.4-0.74-0.97-1.32-1.69-1.75
			c-0.73-0.42-1.54-0.64-2.45-0.64s-1.72,0.21-2.44,0.64c-0.72,0.43-1.28,1.01-1.68,1.75c-0.4,0.74-0.6,1.58-0.6,2.52
			s0.2,1.78,0.6,2.52c0.4,0.74,0.96,1.32,1.68,1.74c0.72,0.42,1.53,0.63,2.44,0.63S80.62,168.32,81.34,167.9z"/>
		<path class="st0" d="M109.37,158.66c0.73-0.49,1.6-0.75,2.63-0.78v0.95c-1.25,0-2.24,0.38-2.99,1.16
			c-0.75,0.77-1.17,1.83-1.28,3.18v6.2h-0.92V157.9h0.92v2.88C108.1,159.86,108.64,159.15,109.37,158.66z"/>
		<path class="st0" d="M134.43,154.04c0.15,0.15,0.23,0.34,0.23,0.56c0,0.23-0.08,0.43-0.23,0.58c-0.15,0.15-0.33,0.23-0.54,0.23
			s-0.38-0.08-0.54-0.23c-0.15-0.15-0.23-0.35-0.23-0.58c0-0.22,0.08-0.41,0.23-0.56c0.15-0.15,0.33-0.23,0.54-0.23
			S134.27,153.89,134.43,154.04z M133.43,157.9h0.9v11.46h-0.9V157.9z"/>
		<path class="st0" d="M168.01,153.04v16.32h-0.92v-2.99c-0.44,0.95-1.09,1.7-1.94,2.24c-0.85,0.54-1.83,0.81-2.95,0.81
			c-1.07,0-2.03-0.25-2.88-0.75c-0.85-0.5-1.51-1.18-1.99-2.06c-0.48-0.87-0.72-1.87-0.72-2.98s0.24-2.11,0.72-2.99
			c0.48-0.88,1.14-1.57,1.98-2.07c0.84-0.5,1.8-0.75,2.87-0.75c1.13,0,2.12,0.27,2.97,0.81s1.5,1.29,1.94,2.24v-7.85H168.01z
			 M164.77,167.93c0.73-0.43,1.29-1.01,1.71-1.76c0.41-0.75,0.62-1.59,0.62-2.53s-0.21-1.78-0.62-2.53
			c-0.41-0.75-0.98-1.33-1.71-1.76s-1.54-0.64-2.45-0.64s-1.73,0.21-2.45,0.64c-0.73,0.43-1.3,1.01-1.72,1.76s-0.63,1.59-0.63,2.53
			s0.21,1.78,0.62,2.53c0.41,0.75,0.98,1.33,1.71,1.76c0.73,0.42,1.55,0.64,2.47,0.64C163.22,168.57,164.04,168.36,164.77,167.93z"
			/>
		<path class="st0" d="M214.83,153.98h11.31v0.9h-5.19v14.48h-0.92v-14.48h-5.19V153.98z"/>
		<path class="st0" d="M253.12,158.64c0.81,0.51,1.43,1.21,1.85,2.12s0.62,1.95,0.6,3.12h-10.01c0.04,0.92,0.27,1.74,0.68,2.44
			c0.41,0.7,0.97,1.25,1.67,1.64c0.7,0.39,1.5,0.58,2.38,0.58c0.78,0,1.5-0.13,2.17-0.41c0.67-0.27,1.24-0.66,1.7-1.18l0.53,0.59
			c-0.54,0.59-1.2,1.04-1.96,1.35s-1.59,0.47-2.49,0.47c-1.07,0-2.03-0.25-2.88-0.74s-1.51-1.17-1.99-2.05
			c-0.48-0.87-0.72-1.86-0.72-2.96c0-1.1,0.24-2.09,0.73-2.97c0.48-0.88,1.15-1.57,1.99-2.06c0.84-0.49,1.8-0.74,2.87-0.74
			C251.35,157.88,252.3,158.13,253.12,158.64z M254.74,163.07c-0.09-1.32-0.54-2.38-1.34-3.17s-1.86-1.19-3.15-1.19
			c-1.29,0-2.36,0.4-3.21,1.2c-0.85,0.8-1.33,1.85-1.45,3.16H254.74z"/>
		<path class="st0" d="M283.16,168.57c-0.81,0.54-1.62,0.81-2.44,0.81c-0.82,0-1.45-0.27-1.89-0.8c-0.44-0.54-0.66-1.33-0.66-2.39
			v-7.22h-1.67v-0.79h1.67v-2.84h0.88v2.84h3.89v0.79h-3.89v7.11c0,1.6,0.59,2.4,1.78,2.4c0.67,0,1.33-0.22,1.98-0.66L283.16,168.57
			z"/>
		<path class="st0" d="M307.44,158.66c0.73-0.49,1.6-0.75,2.63-0.78v0.95c-1.25,0-2.24,0.38-2.99,1.16
			c-0.75,0.77-1.17,1.83-1.28,3.18v6.2h-0.92V157.9h0.92v2.88C306.16,159.86,306.71,159.15,307.44,158.66z"/>
		<path class="st0" d="M338.25,169.36l-0.02-2.27c-0.47,0.78-1.1,1.35-1.88,1.73s-1.68,0.56-2.7,0.56c-0.75,0-1.41-0.15-1.98-0.44
			c-0.57-0.29-1.02-0.69-1.33-1.2s-0.47-1.08-0.47-1.73c0-0.95,0.38-1.71,1.14-2.25c0.76-0.55,1.8-0.83,3.12-0.83h4.07v-1.12
			c-0.01-0.98-0.31-1.75-0.88-2.29c-0.57-0.54-1.42-0.81-2.55-0.81c-0.69,0-1.34,0.13-1.96,0.39c-0.62,0.26-1.25,0.63-1.89,1.11
			l-0.44-0.7c0.75-0.54,1.47-0.95,2.16-1.22s1.44-0.41,2.27-0.41c1.33,0,2.36,0.34,3.09,1.03c0.73,0.69,1.1,1.64,1.11,2.84
			l0.04,7.61H338.25z M336.58,167.82c0.76-0.48,1.31-1.22,1.65-2.2v-1.87h-4c-1.13,0-1.99,0.19-2.58,0.57
			c-0.59,0.38-0.89,0.94-0.89,1.67c0,0.76,0.27,1.38,0.83,1.85c0.55,0.47,1.29,0.7,2.21,0.7
			C334.88,168.55,335.81,168.31,336.58,167.82z"/>
		<path class="st0" d="M371.28,159.08c0.78,0.8,1.18,1.9,1.18,3.29v7h-0.92v-6.82c0-1.17-0.33-2.09-0.99-2.75
			c-0.66-0.66-1.58-0.99-2.75-0.99c-1.41,0.03-2.51,0.48-3.3,1.36s-1.19,2.08-1.19,3.59v5.61h-0.92v-16.32h0.92v7.85
			c0.38-0.97,0.97-1.71,1.77-2.21s1.78-0.77,2.94-0.8C369.41,157.88,370.5,158.28,371.28,159.08z"/>
		<path class="st0" d="M402.8,158.64c0.81,0.51,1.43,1.21,1.85,2.12s0.62,1.95,0.6,3.12h-10.01c0.04,0.92,0.27,1.74,0.68,2.44
			c0.41,0.7,0.97,1.25,1.67,1.64c0.7,0.39,1.5,0.58,2.38,0.58c0.78,0,1.5-0.13,2.17-0.41c0.67-0.27,1.24-0.66,1.7-1.18l0.53,0.59
			c-0.54,0.59-1.2,1.04-1.96,1.35s-1.59,0.47-2.49,0.47c-1.07,0-2.03-0.25-2.88-0.74s-1.51-1.17-1.99-2.05
			c-0.48-0.87-0.72-1.86-0.72-2.96c0-1.1,0.24-2.09,0.73-2.97c0.48-0.88,1.15-1.57,1.99-2.06c0.84-0.49,1.8-0.74,2.87-0.74
			C401.03,157.88,401.99,158.13,402.8,158.64z M404.42,163.07c-0.09-1.32-0.54-2.38-1.34-3.17s-1.86-1.19-3.15-1.19
			c-1.29,0-2.36,0.4-3.21,1.2c-0.85,0.8-1.33,1.85-1.45,3.16H404.42z"/>
		<path class="st0" d="M437.62,153.04v16.32h-0.92v-2.99c-0.44,0.95-1.09,1.7-1.94,2.24c-0.85,0.54-1.83,0.81-2.95,0.81
			c-1.07,0-2.03-0.25-2.88-0.75c-0.85-0.5-1.51-1.18-1.99-2.06c-0.48-0.87-0.72-1.87-0.72-2.98s0.24-2.11,0.72-2.99
			c0.48-0.88,1.14-1.57,1.98-2.07c0.84-0.5,1.8-0.75,2.87-0.75c1.13,0,2.12,0.27,2.97,0.81s1.5,1.29,1.94,2.24v-7.85H437.62z
			 M434.38,167.93c0.73-0.43,1.29-1.01,1.71-1.76c0.41-0.75,0.62-1.59,0.62-2.53s-0.21-1.78-0.62-2.53
			c-0.41-0.75-0.98-1.33-1.71-1.76s-1.54-0.64-2.45-0.64s-1.73,0.21-2.45,0.64c-0.73,0.43-1.3,1.01-1.72,1.76s-0.63,1.59-0.63,2.53
			s0.21,1.78,0.62,2.53c0.41,0.75,0.98,1.33,1.71,1.76c0.73,0.42,1.55,0.64,2.47,0.64C432.83,168.57,433.65,168.36,434.38,167.93z"
			/>
		<path class="st0" d="M463.79,158.66c0.73-0.49,1.6-0.75,2.63-0.78v0.95c-1.25,0-2.24,0.38-2.99,1.16
			c-0.75,0.77-1.17,1.83-1.28,3.18v6.2h-0.92V157.9h0.92v2.88C462.52,159.86,463.06,159.15,463.79,158.66z"/>
		<path class="st0" d="M494.6,169.36l-0.02-2.27c-0.47,0.78-1.1,1.35-1.88,1.73s-1.68,0.56-2.7,0.56c-0.75,0-1.41-0.15-1.98-0.44
			c-0.57-0.29-1.02-0.69-1.33-1.2s-0.47-1.08-0.47-1.73c0-0.95,0.38-1.71,1.14-2.25c0.76-0.55,1.8-0.83,3.12-0.83h4.07v-1.12
			c-0.01-0.98-0.31-1.75-0.88-2.29c-0.57-0.54-1.42-0.81-2.55-0.81c-0.69,0-1.34,0.13-1.96,0.39c-0.62,0.26-1.25,0.63-1.89,1.11
			l-0.44-0.7c0.75-0.54,1.47-0.95,2.16-1.22s1.44-0.41,2.27-0.41c1.33,0,2.36,0.34,3.09,1.03c0.73,0.69,1.1,1.64,1.11,2.84
			l0.04,7.61H494.6z M492.93,167.82c0.76-0.48,1.31-1.22,1.65-2.2v-1.87h-4c-1.13,0-1.99,0.19-2.58,0.57
			c-0.59,0.38-0.89,0.94-0.89,1.67c0,0.76,0.27,1.38,0.83,1.85c0.55,0.47,1.29,0.7,2.21,0.7
			C491.23,168.55,492.17,168.31,492.93,167.82z"/>
		<path class="st0" d="M518.73,153.04h0.92v16.32h-0.92V153.04z"/>
		<path class="st0" d="M579.78,161.82h0.84v5.61c-0.72,0.63-1.55,1.12-2.51,1.48c-0.95,0.36-1.94,0.54-2.95,0.54
			c-1.44,0-2.76-0.35-3.98-1.06c-1.22-0.7-2.18-1.65-2.89-2.85c-0.71-1.2-1.07-2.5-1.07-3.9c0-1.41,0.36-2.71,1.08-3.89
			c0.72-1.19,1.69-2.13,2.92-2.83c1.22-0.7,2.56-1.04,3.99-1.04c1.01,0,1.98,0.18,2.92,0.54c0.93,0.36,1.76,0.86,2.5,1.51
			l-0.55,0.68c-0.65-0.59-1.39-1.04-2.22-1.36c-0.84-0.32-1.72-0.48-2.64-0.48c-1.28,0-2.45,0.31-3.53,0.94s-1.94,1.46-2.57,2.51
			c-0.64,1.05-0.96,2.2-0.96,3.44c0,1.26,0.32,2.42,0.95,3.48s1.49,1.9,2.57,2.52c1.08,0.62,2.27,0.93,3.54,0.93
			c0.84,0,1.65-0.14,2.44-0.42s1.5-0.67,2.13-1.19V161.82z"/>
		<path class="st0" d="M606.66,158.66c0.73-0.49,1.6-0.75,2.63-0.78v0.95c-1.25,0-2.24,0.38-2.99,1.16
			c-0.75,0.77-1.17,1.83-1.28,3.18v6.2h-0.92V157.9h0.92v2.88C605.38,159.86,605.93,159.15,606.66,158.66z"/>
		<path class="st0" d="M631.71,154.04c0.15,0.15,0.23,0.34,0.23,0.56c0,0.23-0.08,0.43-0.23,0.58c-0.15,0.15-0.33,0.23-0.54,0.23
			s-0.38-0.08-0.54-0.23c-0.15-0.15-0.23-0.35-0.23-0.58c0-0.22,0.08-0.41,0.23-0.56c0.15-0.15,0.33-0.23,0.54-0.23
			S631.56,153.89,631.71,154.04z M630.71,157.9h0.9v11.46h-0.9V157.9z"/>
		<path class="st0" d="M665.3,153.04v16.32h-0.92v-2.99c-0.44,0.95-1.09,1.7-1.94,2.24c-0.85,0.54-1.83,0.81-2.95,0.81
			c-1.07,0-2.03-0.25-2.88-0.75c-0.85-0.5-1.51-1.18-1.99-2.06c-0.48-0.87-0.72-1.87-0.72-2.98s0.24-2.11,0.72-2.99
			c0.48-0.88,1.14-1.57,1.98-2.07c0.84-0.5,1.8-0.75,2.87-0.75c1.13,0,2.12,0.27,2.97,0.81s1.5,1.29,1.94,2.24v-7.85H665.3z
			 M662.05,167.93c0.73-0.43,1.29-1.01,1.71-1.76c0.41-0.75,0.62-1.59,0.62-2.53s-0.21-1.78-0.62-2.53
			c-0.41-0.75-0.98-1.33-1.71-1.76s-1.54-0.64-2.45-0.64s-1.73,0.21-2.45,0.64c-0.73,0.43-1.3,1.01-1.72,1.76s-0.63,1.59-0.63,2.53
			s0.21,1.78,0.62,2.53c0.41,0.75,0.98,1.33,1.71,1.76c0.73,0.42,1.55,0.64,2.47,0.64C660.51,168.57,661.33,168.36,662.05,167.93z"
			/>
		<path class="st0" d="M691.59,158.71c-0.85,0-1.54,0.17-2.07,0.5c-0.53,0.33-0.79,0.83-0.79,1.49c0,0.44,0.13,0.81,0.4,1.1
			c0.26,0.29,0.59,0.52,0.99,0.68c0.4,0.16,0.93,0.34,1.61,0.55c0.81,0.25,1.45,0.48,1.94,0.7s0.9,0.54,1.24,0.95
			c0.34,0.41,0.52,0.95,0.52,1.63c0,1.01-0.38,1.78-1.14,2.3c-0.76,0.52-1.71,0.78-2.84,0.78c-0.81,0-1.58-0.14-2.31-0.42
			c-0.73-0.28-1.36-0.67-1.89-1.17l0.42-0.7c0.5,0.47,1.08,0.83,1.75,1.08c0.67,0.25,1.36,0.37,2.08,0.37
			c0.88,0,1.61-0.18,2.19-0.55c0.58-0.37,0.87-0.9,0.87-1.61c0-0.47-0.14-0.85-0.41-1.16s-0.61-0.54-1.02-0.71
			c-0.41-0.18-0.96-0.37-1.65-0.57c-0.79-0.25-1.42-0.48-1.89-0.69c-0.47-0.21-0.87-0.52-1.21-0.92c-0.34-0.4-0.51-0.93-0.51-1.57
			c0-0.95,0.36-1.67,1.07-2.16c0.71-0.48,1.61-0.73,2.7-0.73c1.2,0,2.29,0.3,3.28,0.9l-0.4,0.75
			C693.64,158.99,692.67,158.71,691.59,158.71z"/>
	</g>
	<g>
		<path class="st0" d="M259.66,16.16v102.77h-23.79V76.79h-46.69v42.14H165.4V16.16h23.79v40.52h46.69V16.16H259.66z"/>
		<path class="st0" d="M340.7,82.52v36.41h-23.79v-36.7l-39.79-66.07h25.25l27.46,45.66l27.46-45.66h23.34L340.7,82.52z"/>
		<path class="st0" d="M417.34,35.54h-32.89V16.16h89.56v19.38h-32.89v83.39h-23.79V35.54z"/>
		<path class="st0" d="M573.7,99.84v19.09h-79.58V16.16h77.67v19.09h-54.03v22.32h47.72v18.5h-47.72v23.78H573.7z"/>
		<path class="st0" d="M669.14,65.93h21.73v41.7c-5.58,4.21-12.04,7.44-19.38,9.69c-7.34,2.25-14.73,3.38-22.17,3.38
			c-10.67,0-20.26-2.28-28.78-6.83c-8.52-4.55-15.2-10.86-20.04-18.94c-4.84-8.08-7.27-17.2-7.27-27.38
			c0-10.18,2.42-19.31,7.27-27.38c4.85-8.08,11.57-14.39,20.19-18.94c8.61-4.55,18.3-6.83,29.07-6.83c9,0,17.18,1.52,24.52,4.55
			c7.34,3.04,13.51,7.44,18.5,13.21l-15.27,14.1c-7.34-7.73-16.2-11.6-26.57-11.6c-6.56,0-12.38,1.37-17.47,4.11
			c-5.09,2.74-9.05,6.61-11.89,11.6c-2.84,4.99-4.26,10.72-4.26,17.18c0,6.36,1.42,12.04,4.26,17.03
			c2.84,4.99,6.78,8.88,11.82,11.67c5.04,2.79,10.79,4.18,17.25,4.18c6.85,0,13.02-1.47,18.5-4.4V65.93z"/>
	</g>
	<linearGradient id="SVGID_1_" gradientUnits="userSpaceOnUse" x1="0" y1="62.5298" x2="145.4771" y2="62.5298">
		<stop  offset="0" style="stop-color:#77A1D3"/>
		<stop  offset="0.2698" style="stop-color:#78B3CF"/>
		<stop  offset="0.5496" style="stop-color:#79CBCA"/>
		<stop  offset="0.8851" style="stop-color:#C9DEC1"/>
		<stop  offset="0.9998" style="stop-color:#E5E5BE"/>
	</linearGradient>
	<path class="st1" d="M71.46,0L0,125.06h145.48L71.46,0z M72.07,50.55l28.67,48.78H44.2L72.07,50.55z M77.79,40.54l2.97-5.2
		l47.18,79.71h-6.35L77.79,40.54z M71.61,19.89l3.29,5.55L32.68,99.33h-6.46L71.61,19.89z M20.51,109.33h86.12l3.37,5.73H17.23
		L20.51,109.33z"/>
</g>
</svg>
